<?xml version="1.0" encoding="UTF-8" standalone="no"?>
<!-- Created with Inkscape (http://www.inkscape.org/) -->

<svg
   width="122.80759mm"
   height="120.18143mm"
   viewBox="0 0 122.80759 120.18143"
   version="1.1"
   id="svg1"
   xml:space="preserve"
   xmlns:inkscape="http://www.inkscape.org/namespaces/inkscape"
   xmlns:sodipodi="http://sodipodi.sourceforge.net/DTD/sodipodi-0.dtd"
   xmlns="http://www.w3.org/2000/svg"
   xmlns:svg="http://www.w3.org/2000/svg"><sodipodi:namedview
     id="namedview1"
     pagecolor="#ffffff"
     bordercolor="#000000"
     borderopacity="0.25"
     inkscape:showpageshadow="2"
     inkscape:pageopacity="0.0"
     inkscape:pagecheckerboard="0"
     inkscape:deskcolor="#d1d1d1"
     inkscape:document-units="mm" /><defs
     id="defs1" /><g
     inkscape:groupmode="layer"
     id="layer2"
     inkscape:label="Livello 2"
     transform="translate(-43.207898,-89.562703)"><g
       id="g5"><path
         style="fill:#000000;stroke:#ac9cb2;stroke-width:0.0830001;stroke-linecap:round;stroke-linejoin:round"
         d="M 45.161768,108.7658 96.422555,137.95396 117.6239,114.71961 57.069373,96.712986 45.161768,108.18495 Z"
         id="path1" /><path
         style="fill:#000000;stroke:#ac9cb2;stroke-width:0.0830001;stroke-linecap:round;stroke-linejoin:round"
         d="m 147.2857,209.99281 -30.2135,-50.6632 24.6909,-21.51926 17.33342,60.0348 -12.3918,11.84555 z"
         id="path2"
         sodipodi:nodetypes="cccccc" /><path
         id="path3"
         style="fill:#000000;stroke:#ac9cb2;stroke-width:0.069866;stroke-linecap:round;stroke-linejoin:round"
         d="m 156.68656,89.597632 -7.98659,2.759005 -7.11585,3.485058 -6.53448,6.534485 -20.91087,22.07255 -31.366561,32.96388 -1.179257,0.65526 1.420096,0.21294 -30.602294,-6.77275 -9.133809,9.96736 -0.03411,0.16329 29.558402,17.08992 0.02532,-0.0594 2.830319,2.12287 0.349332,-0.13488 15.998507,29.05197 0.163298,-0.031 10.155967,-8.92349 -4.775934,-28.40395 0.326595,-0.12609 29.478819,-27.59056 31.07562,-29.04319 5.08289,-7.84138 2.46859,-6.24458 -0.14521,-5.953646 -1.3069,-2.468584 -3.48558,-2.323372 z"
         sodipodi:nodetypes="cccccccccccccccccccccccccccc"
         inkscape:export-filename="path3.png"
         inkscape:export-xdpi="96"
         inkscape:export-ydpi="96" /></g></g></svg>
